<?xml version="1.0" encoding="UTF-8" standalone="no"?>
<svg width="84px" height="92px" viewBox="0 0 84 92" version="1.1" xmlns="http://www.w3.org/2000/svg" xmlns:xlink="http://www.w3.org/1999/xlink" xmlns:sketch="http://www.bohemiancoding.com/sketch/ns">
    <!-- Generator: Sketch 3.3.2 (12043) - http://www.bohemiancoding.com/sketch -->
    <title>logo</title>
    <desc>Created with Sketch.</desc>
    <defs></defs>
    <g id="Page-1" stroke="none" stroke-width="1" fill="none" fill-rule="evenodd" sketch:type="MSPage">
        <g id="logo" sketch:type="MSLayerGroup" fill="#000000">
            <path d="M2,91.996 C0.896,91.996 0,91.1 0,89.996 C0,77.948 16.76,68.76 28.544,68.044 L32.104,57.364 C32.452,56.32 33.576,55.748 34.632,56.1 C35.68,56.46 36.244,57.584 35.896,58.64 L31.896,70.64 C31.624,71.452 30.86,72.004 30,72.004 C19.972,72.004 4,80.248 4,90.004 C4,91.1 3.104,91.996 2,91.996 L2,91.996 Z" id="Shape" sketch:type="MSShapeGroup"></path>
            <path d="M82,91.996 C80.9,91.996 80,91.1 80,89.996 C80,80.24 64.028,71.996 54,71.996 C53.14,71.996 52.376,71.444 52.1,70.628 L48.1,58.628 C47.756,57.58 48.32,56.448 49.364,56.096 C50.42,55.736 51.544,56.32 51.896,57.352 L55.456,68.032 C67.232,68.76 84,77.948 84,89.984 C84,91.1 83.1,91.996 82,91.996 L82,91.996 Z" id="Shape" sketch:type="MSShapeGroup"></path>
            <path d="M42,59.996 C18.584,59.996 10.216,46.904 8.212,42.892 C7.908,42.292 7.936,41.556 8.292,40.976 C10.188,37.808 15.28,28.864 16.06,25.544 C19.892,9.312 29.348,0.004 42.008,0.004 C54.668,0.004 64.124,9.312 67.956,25.544 C68.736,28.868 73.828,37.812 75.72,40.976 C76.072,41.56 76.096,42.288 75.8,42.892 C73.784,46.904 65.416,59.996 42,59.996 L42,59.996 Z M12.296,42.044 C14.748,46.296 22.508,55.996 42,55.996 C61.492,55.996 69.252,46.284 71.704,42.044 C69.916,38.996 64.976,30.368 64.056,26.46 C62.46,19.708 57.12,4 42,4 C26.88,4 21.54,19.708 19.948,26.46 C19.024,30.368 14.084,38.996 12.296,42.044 L12.296,42.044 Z" id="Shape" sketch:type="MSShapeGroup"></path>
            <path d="M46,81.996 L38,81.996 C32.58,81.996 28,77.188 28,71.496 C28,70.392 28.896,69.496 30,69.496 C31.104,69.496 32,70.392 32,71.496 C32,74.956 34.804,77.996 38,77.996 L46,77.996 C49.38,77.996 52,74.24 52,70.996 C52,69.892 52.9,68.996 54,68.996 C55.1,68.996 56,69.892 56,70.996 C56,76.2 51.892,81.996 46,81.996 L46,81.996 Z" id="Shape" sketch:type="MSShapeGroup"></path>
        </g>
    </g>
</svg>